<?xml version="1.0" encoding="UTF-8"?>
<svg version="1.1" xmlns="http://www.w3.org/2000/svg" width="512" height="512">
<path d="M0 0 C13.52890137 11.69437008 26.98543298 29.54101909 29.875 47.6875 C31.5078256 51.41967281 32.62848341 51.63175905 36.3125 53.125 C37.92882261 53.6721687 39.55171653 54.20159384 41.1875 54.6875 C41.95191406 53.86507812 42.71632813 53.04265625 43.50390625 52.1953125 C61.27863535 33.50401242 83.88133333 21.45778583 110.08203125 20.46484375 C134.72891419 19.88600349 158.17029918 26.40167453 177.1875 42.6875 C177.99832031 43.35394531 178.80914062 44.02039063 179.64453125 44.70703125 C197.38069286 59.82772203 208.13596759 81.74594873 211.1875 104.6875 C211.40020127 108.7559427 211.38041721 112.8025798 211.3125 116.875 C211.30347656 117.92236328 211.29445313 118.96972656 211.28515625 120.04882812 C211.26190075 122.59530514 211.22922569 125.14127031 211.1875 127.6875 C211.97519775 127.84565186 212.76289551 128.00380371 213.57446289 128.16674805 C228.82679806 131.34326524 241.05012857 139.20790969 249.65234375 152.140625 C257.13116405 164.54823527 259.43177371 178.81042345 256.5 193.01953125 C252.99662948 203.45665592 245.41053575 212.6708439 235.75 218.04296875 C230.1006419 220.6167717 225.36834209 221.81139908 219.13222313 221.82172108 C217.88337031 221.82617892 216.63451749 221.83063676 215.34782064 221.83522969 C213.95945 221.8351404 212.57107936 221.83495055 211.18270874 221.83467102 C209.70970393 221.83797059 208.23670002 221.84169635 206.76369727 221.8458125 C202.710276 221.85583003 198.65686955 221.8595489 194.60343766 221.86220181 C190.233808 221.86610559 185.86419005 221.87568387 181.49456787 221.88441467 C170.93918276 221.90417687 160.38379668 221.91424492 149.82839769 221.92314246 C144.85767043 221.92752571 139.88694423 221.93289242 134.9162178 221.93813133 C118.39244241 221.95514326 101.86866768 221.96963751 85.34488487 221.97688007 C81.05690892 221.97878997 76.76893297 221.9807103 72.48095703 221.98266602 C70.88232456 221.98339163 70.88232456 221.98339163 69.25139649 221.9841319 C51.9862811 221.99243247 34.721235 222.01777002 17.45614986 222.05024669 C-0.26940097 222.08331771 -17.9949166 222.10132887 -35.72049844 222.10452431 C-45.67281603 222.10668935 -55.62503258 222.11543719 -65.5773201 222.14098549 C-74.0530218 222.16269303 -82.52859793 222.17074262 -91.00432427 222.16101871 C-95.32760798 222.15647419 -99.6506326 222.15836901 -103.97388077 222.17778015 C-107.93553086 222.19541386 -111.89673289 222.19441263 -115.85838775 222.17888286 C-117.28778262 222.17650709 -118.71720853 222.18082881 -120.14655598 222.19271151 C-131.05015747 222.27770653 -140.37651999 220.62718389 -149.05859375 213.62890625 C-155.54840898 206.44530231 -156.94401898 195.97542205 -157.8125 186.6875 C-157.8846875 185.94242188 -157.956875 185.19734375 -158.03125 184.4296875 C-158.84104825 166.68160922 -151.06566065 150.6690827 -140.8125 136.6875 C-141.53953125 135.79224609 -141.53953125 135.79224609 -142.28125 134.87890625 C-159.35630795 112.77984087 -164.35643714 86.4056521 -161.52832031 58.92626953 C-158.35543659 37.55396298 -147.56015889 20.00831156 -132.8125 4.6875 C-132.22855469 4.02878906 -131.64460938 3.37007812 -131.04296875 2.69140625 C-97.55985351 -34.01286945 -35.84420707 -29.69449162 0 0 Z " fill="#8AC4FE" transform="translate(244.8125,95.3125)"/>
<path d="M0 0 C15.41622202 13.32576833 26.94668235 31.63999838 31.1875 51.6875 C30.17429687 51.48253906 29.16109375 51.27757812 28.1171875 51.06640625 C26.7656355 50.79421869 25.41407241 50.52208621 24.0625 50.25 C23.06476563 50.04793945 23.06476563 50.04793945 22.046875 49.84179688 C0.77471635 45.56651009 -19.44823725 47.83755491 -37.95751953 59.86352539 C-56.29714312 72.3629321 -66.9963714 89.90042421 -71.234375 111.55859375 C-71.42515625 112.59113281 -71.6159375 113.62367188 -71.8125 114.6875 C-72.14368141 116.35459561 -72.47617284 118.0214349 -72.8125 119.6875 C-73.89015625 119.52894531 -74.9678125 119.37039062 -76.078125 119.20703125 C-89.34317919 117.56494121 -104.62211 116.61023204 -116.8125 122.6875 C-117.8953125 123.19667969 -118.978125 123.70585937 -120.09375 124.23046875 C-127.26539045 127.82451334 -133.1304072 132.03477202 -138.8125 137.6875 C-152.61769098 125.5556655 -160.73403854 103.64436819 -162.03564453 85.59277344 C-163.29407153 58.52278578 -158.30890401 32.7601251 -139.75756836 12.01196289 C-137.48162149 9.53222284 -135.14673075 7.11244824 -132.8125 4.6875 C-132.22855469 4.02878906 -131.64460938 3.37007812 -131.04296875 2.69140625 C-97.55985351 -34.01286945 -35.84420707 -29.69449162 0 0 Z " fill="#F8CC00" transform="translate(244.8125,95.3125)"/>
<path d="M0 0 C12.57997131 6.01738596 20.9064367 24.67850172 25.63671875 37.1484375 C29.98295119 49.52523427 32.4030398 63.29887625 26.80859375 75.625 C21.98417768 84.45880817 15.48779971 89.17759844 5.98828125 92.3046875 C-3.37624489 94.48362299 -12.51492948 93.56491636 -21 89 C-28.4941143 83.93388535 -33.41081856 77.39773689 -35.60546875 68.5625 C-38.88040952 47.29159759 -29.23001163 26.84611146 -17 10 C-8.40329835 -0.56971514 -8.40329835 -0.56971514 0 0 Z " fill="#73A7ED" transform="translate(297,335)"/>
<path d="M0 0 C13.17756371 7.2449261 22.01676053 27.27288311 26.31640625 41.04296875 C29.63465071 52.6063804 31.12063992 64.73459218 26 76 C21.42450368 83.96792038 14.43386675 89.97178443 5.54296875 92.52734375 C-5.67983898 94.6133034 -15.8178375 92.704775 -25.3125 86.375 C-31.68634054 81.16598863 -35.6006124 73.84668581 -36.8125 65.7421875 C-38.41824673 42.25814156 -26.95736858 21.94872975 -13 4 C-9.31978854 -0.19060575 -5.46125279 -0.71622987 0 0 Z " fill="#6B9FEA" transform="translate(176,335)"/>
<path d="M0 0 C16.1518861 14.61116565 26.60290654 37.3966224 28.3125 58.9375 C27.92074472 70.16013666 24.02863061 77.97136939 16.25 85.75 C6.79763438 92.29394543 -2.76357072 93.32074284 -14 92 C-22.3357034 90.04342517 -29.16788039 84.06812538 -33.875 77.0625 C-39.87309979 66.5001896 -38.94162055 54.6765296 -35.96826172 43.27319336 C-31.91629685 29.13467068 -23.16571148 7.82065768 -10 0 C-6.1544104 -1.2818632 -3.93271581 -0.94927623 0 0 Z " fill="#6EA2EC" transform="translate(360,420)"/>
<path d="M0 0 C3.10983751 2.25097495 5.16264085 4.8700679 7.32421875 7.98828125 C7.96447998 8.9016626 7.96447998 8.9016626 8.61767578 9.83349609 C20.4974743 27.20841352 28.41864446 45.48236864 26.57421875 66.86328125 C24.67640956 75.8035631 19.10664989 82.73125823 11.57421875 87.73828125 C3.18766419 92.48267497 -6.04827002 93.24825443 -15.4296875 91.2109375 C-24.35177885 88.31963391 -32.09197667 82.32931811 -36.42578125 73.86328125 C-41.58024754 58.9080692 -38.26349583 42.7522275 -31.73925781 28.78076172 C-26.98720024 19.08424619 -20.43395484 5.93816557 -11.61328125 -0.44921875 C-7.53894235 -1.72972526 -3.8930005 -1.82425627 0 0 Z " fill="#6CA0EB" transform="translate(421.42578125,336.13671875)"/>
<path d="M0 0 C13.29378539 11.94876711 24.48806969 35.01712079 25.73046875 52.6328125 C26.26104592 64.11888604 25.2692764 73.00847763 17.51953125 82.06640625 C9.70867931 89.63912246 1.08669134 91.52978205 -9.46240234 91.40258789 C-15.24139154 91.1648569 -19.75591336 90.13081613 -24.65234375 86.9296875 C-25.35746094 86.50558594 -26.06257812 86.08148438 -26.7890625 85.64453125 C-33.30063095 81.3235459 -36.05425352 75.81076378 -38.96484375 68.7421875 C-42.90209096 46.90836205 -33.75861208 27.31496912 -21.84667969 9.64453125 C-18.76723087 5.22301683 -15.75109214 1.24140524 -11.15234375 -1.6328125 C-7.00663463 -2.3583116 -3.64768968 -2.36280608 0 0 Z " fill="#6CA0EA" transform="translate(239.65234375,421.0703125)"/>
<path d="M0 0 C3.25908021 2.84124941 3.91758009 4.54294411 4.6875 8.8125 C4.49103299 12.38206523 3.43073379 14.06114569 1.0390625 16.671875 C0.40540771 17.36514893 -0.22824707 18.05842285 -0.88110352 18.77270508 C-4.63519335 22.71884652 -8.45183044 26.59570902 -12.3125 30.4375 C-13.12267578 31.25154297 -13.93285156 32.06558594 -14.76757812 32.90429688 C-15.54166016 33.67708984 -16.31574219 34.44988281 -17.11328125 35.24609375 C-17.81235596 35.94404053 -18.51143066 36.6419873 -19.23168945 37.36108398 C-21.76594209 39.70989496 -22.7827667 39.98360503 -26.3125 40.25 C-30.22632394 39.984656 -31.93192479 39.36680088 -35 37 C-37.74371271 32.88443094 -37.91684905 29.81686455 -37 25 C-35.71484375 23.09204102 -35.71484375 23.09204102 -34 21.25390625 C-33.36457275 20.56611084 -32.72914551 19.87831543 -32.07446289 19.16967773 C-31.38989014 18.45368408 -30.70531738 17.73769043 -30 17 C-28.97410767 15.90957397 -28.97410767 15.90957397 -27.92749023 14.79711914 C-25.78793254 12.54859907 -23.6176074 10.3341755 -21.4375 8.125 C-20.70853516 7.36703125 -19.97957031 6.6090625 -19.22851562 5.828125 C-13.15283734 -0.31864583 -8.66156434 -3.68918481 0 0 Z " fill="#F8BD00" transform="translate(300,48)"/>
<path d="M0 0 C3.00366211 2.30664062 3.00366211 2.30664062 5.77734375 5.15625 C6.52257042 5.91065369 6.52257042 5.91065369 7.28285217 6.68029785 C8.84909243 8.27324477 10.39288427 9.88610709 11.9375 11.5 C12.99930336 12.58335377 14.06244392 13.66539864 15.12695312 14.74609375 C24.36207317 24.18167694 24.36207317 24.18167694 24.2890625 31.73828125 C23.86115823 35.08634301 22.44926739 36.76066981 20 39 C16.2350613 40.25497957 13.96991382 40.52064444 10 40 C8.20947266 38.74731445 8.20947266 38.74731445 6.3515625 37.05078125 C5.65490479 36.41543457 4.95824707 35.78008789 4.24047852 35.12548828 C0.2856007 31.37359046 -3.5923399 27.55155524 -7.4375 23.6875 C-8.25154297 22.87732422 -9.06558594 22.06714844 -9.90429688 21.23242188 C-10.67708984 20.45833984 -11.44988281 19.68425781 -12.24609375 18.88671875 C-13.29301392 17.83810669 -13.29301392 17.83810669 -14.36108398 16.76831055 C-17.16025083 13.74814587 -17.39636587 11.2049769 -17.3515625 7.10546875 C-16.71660257 3.3027643 -14.78932244 1.59914137 -12 -1 C-7.7964445 -2.52250734 -4.05784176 -1.6191001 0 0 Z " fill="#F8C000" transform="translate(74,48)"/>
<path d="M0 0 C3 2 3 2 5 5 C6.03072577 13.06982863 3.27051421 19.53833956 0.14770508 26.84936523 C-0.68953019 28.81727193 -1.49346458 30.79658997 -2.29492188 32.77929688 C-2.82359264 34.04768041 -3.35412812 35.31528867 -3.88671875 36.58203125 C-4.36326904 37.71874268 -4.83981934 38.8554541 -5.33081055 40.02661133 C-7.17806633 43.31719611 -8.8345974 44.97282178 -12 47 C-16.66116501 47.66588072 -19.57749595 47.73971448 -23.4375 44.9375 C-26.53093488 41.39136733 -26.74545003 39.64485273 -27 35 C-26.16723633 31.73022461 -26.16723633 31.73022461 -24.83203125 28.40234375 C-24.35056641 27.18869141 -23.86910156 25.97503906 -23.37304688 24.72460938 C-23.11644287 24.10223389 -22.85983887 23.4798584 -22.59545898 22.83862305 C-21.81574547 20.94538041 -21.06133819 19.04354373 -20.31054688 17.13867188 C-14.71221584 3.22789158 -14.71221584 3.22789158 -10.25 -0.4375 C-6.68393635 -1.32901591 -3.4737169 -1.03867575 0 0 Z " fill="#F8C300" transform="translate(246,12)"/>
<path d="M0 0 C1.17433594 0.48210937 2.34867188 0.96421875 3.55859375 1.4609375 C4.68136719 1.9353125 5.80414063 2.4096875 6.9609375 2.8984375 C7.97720215 3.32560059 8.9934668 3.75276367 10.04052734 4.19287109 C13.7968712 6.27436675 15.23808999 8.38136068 16.5 12.4375 C16.66120989 16.54835231 15.56174529 19.02818733 13.625 22.625 C9.57446769 25.32535488 6.3019428 25.29691747 1.625 24.625 C-3.09217141 23.18002239 -7.58871614 21.30648381 -12.125 19.375 C-13.33027344 18.88386719 -14.53554688 18.39273438 -15.77734375 17.88671875 C-28.99470042 12.38559916 -28.99470042 12.38559916 -31.375 7.625 C-32.04239635 2.77207508 -32.12585716 -0.37385712 -29.125 -4.375 C-20.28120946 -10.80684767 -8.81943345 -3.7529504 0 0 Z " fill="#F8BC00" transform="translate(53.375,106.375)"/>
<path d="M0 0 C1.79537931 -0.01655326 3.5906929 -0.04383524 5.38574219 -0.08203125 C7.97682815 -0.13687157 10.56637041 -0.15868383 13.15795898 -0.17333984 C13.95708206 -0.19600922 14.75620514 -0.21867859 15.57954407 -0.24203491 C19.86954344 -0.22581823 21.40733687 -0.03819256 24.87158203 2.7578125 C28.03235806 6.82041023 28.40662651 9.16810992 27.88842773 14.35009766 C25.88550294 17.83008281 23.76789424 20.05694215 19.88842773 21.35009766 C17.36102074 21.47050249 14.86196636 21.53814328 12.33374023 21.55322266 C11.59517792 21.55892273 10.8566156 21.5646228 10.09567261 21.57049561 C8.53392973 21.57993411 6.97216703 21.58647502 5.41040039 21.59033203 C3.02902248 21.60003412 0.6485093 21.63106544 -1.73266602 21.66259766 C-3.25219216 21.6691286 -4.77172445 21.67437871 -6.29125977 21.67822266 C-6.99975067 21.69056946 -7.70824158 21.70291626 -8.4382019 21.71563721 C-13.87610094 21.69130291 -16.99361975 20.32198448 -20.92407227 16.66259766 C-22.66804016 13.26644964 -22.79238733 10.03967605 -22.11157227 6.35009766 C-16.8899351 -1.83046723 -8.72529124 0.05899238 0 0 Z " fill="#F8BC00" transform="translate(32.111572265625,159.64990234375)"/>
<path d="M0 0 C4.63289966 5.61682196 7.40933554 12.83548897 10.3125 19.4375 C10.9940918 20.91573242 10.9940918 20.91573242 11.68945312 22.42382812 C14.41418489 28.60671569 15.69956359 33.23755193 15 40 C13.20606332 42.87029869 12.01736724 44.49131638 9 46 C2.17817014 46.68218299 2.17817014 46.68218299 -1.8671875 44.33984375 C-6.36089219 40.3318682 -8.32233247 34.54774842 -10.57958984 29.09936523 C-11.37272212 27.19297516 -12.19775505 25.30287415 -13.02734375 23.41210938 C-17.93755385 11.81343013 -17.93755385 11.81343013 -17 5 C-15.09654278 1.63234491 -13.62149958 0.31765534 -10.1875 -1.4375 C-5.99192032 -2.17789641 -3.86632817 -1.82771877 0 0 Z " fill="#F8C100" transform="translate(124,14)"/>
<path d="M0 0 C3.49890004 2.11391877 4.70578686 3.11736059 6 7 C6.27655911 12.09043795 6.31340898 17.18034085 6.35009766 22.27758789 C6.36664784 23.96229882 6.39392594 25.6469398 6.43212891 27.33129883 C6.48708977 29.76941064 6.5087983 32.2058822 6.5234375 34.64453125 C6.54610687 35.39160843 6.56877625 36.13868561 6.59213257 36.90840149 C6.57644389 40.82012186 6.07399101 43.41378788 3.68212891 46.45581055 C0.33915117 49.62686197 -1.42285563 50.08030078 -6 50 C-9.46545545 48.80041927 -11.39272553 47.78137303 -13.64697266 44.88085938 C-15.36208607 41.22904806 -15.43158825 37.98405071 -15.3984375 34.03125 C-15.40130768 33.27332153 -15.40417786 32.51539307 -15.40713501 31.73449707 C-15.40916966 30.1376063 -15.40368177 28.54069026 -15.39111328 26.94384766 C-15.3750499 24.50756803 -15.39098109 22.07294713 -15.41015625 19.63671875 C-15.40817371 18.08072553 -15.40432981 16.52473333 -15.3984375 14.96875 C-15.40451019 14.24465942 -15.41058289 13.52056885 -15.4168396 12.77453613 C-15.35559784 8.34347651 -14.74389979 5.51025771 -12 2 C-7.97685134 -0.68209911 -4.72780081 -0.68843415 0 0 Z " fill="#F8BC00" transform="translate(185,0)"/>
<path d="M0 0 C5.81818182 1.16363636 5.81818182 1.16363636 8 4 C9.91447954 9.74343861 9.30672963 16.25236284 9.35009766 22.27758789 C9.36664784 23.96229882 9.39392594 25.6469398 9.43212891 27.33129883 C9.48708977 29.76941064 9.5087983 32.2058822 9.5234375 34.64453125 C9.54610687 35.39160843 9.56877625 36.13868561 9.59213257 36.90840149 C9.57648096 40.81087801 9.06098117 43.45207041 6.71728516 46.5222168 C4 49 4 49 0 49 C0 32.83 0 16.66 0 0 Z " fill="#F9D700" transform="translate(182,0)"/>
<path d="M0 0 C0.33 0 0.66 0 1 0 C1 14.85 1 29.7 1 45 C-2 43 -2 43 -3 40 C-3.12059347 37.39993181 -3.18807427 34.82744924 -3.203125 32.2265625 C-3.20882507 31.46580414 -3.21452515 30.70504578 -3.22039795 29.92123413 C-3.22983748 28.31241238 -3.23637778 26.70357138 -3.24023438 25.09472656 C-3.24993701 22.64093085 -3.2809678 20.18797411 -3.3125 17.734375 C-3.31903085 16.16927579 -3.324281 14.60417061 -3.328125 13.0390625 C-3.3404718 12.30869781 -3.3528186 11.57833313 -3.36553955 10.82583618 C-3.34622726 6.38135318 -2.73486489 3.54285379 0 0 Z " fill="#F68B00" transform="translate(173,2)"/>
<path d="M0 0 C0 16.17 0 32.34 0 49 C-0.99 48.67 -1.98 48.34 -3 48 C-3 32.49 -3 16.98 -3 1 C-1 0 -1 0 0 0 Z " fill="#F7A400" transform="translate(177,0)"/>
<path d="M0 0 C0.33 0 0.66 0 1 0 C1 7.59 1 15.18 1 23 C-4 19 -4 19 -5.125 16 C-5.63151634 10.35419594 -2.35254905 4.95744766 0 0 Z " fill="#F78D00" transform="translate(224,35)"/>
<path d="M0 0 C0.66 0.33 1.32 0.66 2 1 C1.67 1.33 1.34 1.66 1 2 C0.76321284 4.69235776 0.57801975 7.36498156 0.4375 10.0625 C0.39431641 10.82111328 0.35113281 11.57972656 0.30664062 12.36132812 C0.20026367 14.24065438 0.09960066 16.12030244 0 18 C-3.14714091 14.9896913 -3.94259042 13.70039686 -4.3125 9.1875 C-4.28966787 5.00922038 -2.9822863 2.9822863 0 0 Z " fill="#F68800" transform="translate(111,14)"/>
<path d="M0 0 C0 5.28 0 10.56 0 16 C-4 12 -4 12 -4.49609375 10 C-4.203125 0 -4.203125 0 0 0 Z " fill="#F68600" transform="translate(61,49)"/>
</svg>
